#!OML:ASF H:\Terrain\Patient Classification 1\Terrain2\Thursday\justin.ASF
:FULLY-SPECIFIED
:DEGREES
2594
root -2.16318 22.6446 1.05329 -367.108 -5.04523 -6.89597
lowerback 6.25532 1.66093 5.81435
upperback 4.12499 2.48817 3.94316
thorax 0.835587 1.30655 0.679915
lowerneck -12.9614 -0.960714 -7.74224
upperneck 37.8112 -0.332197 3.28238
head 15.4981 -0.787251 2.73487
rclavicle -3.11346e-014 -1.07344e-014
rhumerus -29.1439 -0.518874 -83.7124
rradius 44.7464
rwrist -18.1117
rhand -22.0744 11.6753
rfingers 7.12502
rthumb 4.33694 -18.2603
lclavicle -3.11346e-014 -1.07344e-014
lhumerus -34.28 9.26768 80.9117
lradius 27.556
lwrist 1.82604
lhand -15.0038 20.0757
lfingers 7.12502
lthumb 11.1611 49.7589
rfemur 13.1217 1.65541 34.6491
rtibia 31.9969
rfoot -30.3323 -5.55556
rtoes 7.299
lfemur -31.2801 4.28248 -9.80155
ltibia 32.4587
lfoot 22.6818 1.03545
ltoes -4.34885
2595
root -2.15093 22.5872 1.19038 -367.166 -5.4317 -7.33634
lowerback 5.92904 1.73434 6.34586
upperback 4.14859 2.57811 4.03035
thorax 1.06752 1.36535 0.485077
lowerneck -12.6834 -0.916684 -7.70202
upperneck 37.6675 -0.28603 3.23427
head 15.356 -0.765407 2.70769
rclavicle 1.54555e-014 4.77083e-015
rhumerus -29.4247 -0.504314 -83.8165
rradius 44.7215
rwrist -18.165
rhand -21.899 11.8026
rfingers 7.12502
rthumb 4.50629 -18.1294
lclavicle 1.54555e-014 4.77083e-015
lhumerus -34.5198 9.50253 80.7472
lradius 27.3105
lwrist 1.74883
lhand -15.9428 19.9274
lfingers 7.12502
lthumb 10.2554 49.6574
rfemur 13.5212 1.30637 34.9739
rtibia 32.5368
rfoot -30.4857 -6.42366
rtoes 2.56214
lfemur -30.4237 4.01525 -9.12226
ltibia 30.6453
lfoot 23.1123 1.16464
ltoes -6.06965
2596
root -2.14257 22.5433 1.32876 -367.143 -5.76593 -7.26814
lowerback 5.48149 1.88182 6.28827
upperback 4.17042 2.72814 4.01384
thorax 1.34279 1.44559 0.511933
lowerneck -12.5974 -0.916356 -7.84966
upperneck 37.6896 -0.304602 3.38188
head 15.3482 -0.774796 2.79435
rclavicle 5.1684e-015 5.04913e-014
rhumerus -29.6222 -0.576614 -83.8295
rradius 44.4805
rwrist -18.2135
rhand -21.6738 12.055
rfingers 7.12502
rthumb 4.72379 -17.8723
lclavicle 5.1684e-015 5.04913e-014
lhumerus -34.6681 9.52629 80.7456
lradius 27.0209
lwrist 1.75694
lhand -18.5542 19.7032
lfingers 7.12502
lthumb 7.73547 49.5417
rfemur 13.6649 1.21748 34.7538
rtibia 33.1429
rfoot -30.6828 -6.39491
rtoes 1.81633
lfemur -29.6184 3.63251 -8.96219
ltibia 28.9097
lfoot 23.4153 1.8116
ltoes -5.68406
2597
root -2.13221 22.4936 1.47216 -367.184 -6.02457 -7.00577
lowerback 5.08027 1.9819 6.01941
upperback 4.18248 2.81426 3.95272
thorax 1.57026 1.4886 0.611055
lowerneck -12.5439 -0.911266 -8.0514
upperneck 37.821 -0.312953 3.56833
head 15.4022 -0.78587 2.91279
rclavicle -3.42407e-014 -2.70347e-014
rhumerus -29.9075 -0.585967 -83.854
rradius 44.3899
rwrist -18.2564
rhand -21.4948 12.0917
rfingers 7.12502
rthumb 4.8966 -17.8317
lclavicle -3.42407e-014 -2.70347e-014
lhumerus -34.9342 9.66999 80.7148
lradius 26.7635
lwrist 1.52517
lhand -16.3688 19.4735
lfingers 7.12502
lthumb 9.84438 49.2233
rfemur 13.9174 1.15901 34.2916
rtibia 33.8498
rfoot -31.114 -6.05889
rtoes 1.82049
lfemur -28.747 3.19918 -9.05844
ltibia 27.2036
lfoot 23.9033 1.8787
ltoes -6.6221
2598
root -2.12059 22.4324 1.60752 -367.356 -6.23072 -6.78651
lowerback 4.95325 2.04232 5.84127
upperback 4.20386 2.87693 3.84462
thorax 1.66084 1.51955 0.602078
lowerneck -12.451 -0.894022 -8.06527
upperneck 37.8935 -0.333247 3.67477
head 15.4167 -0.784798 2.95923
rclavicle 2.77802e-014 -1.47101e-014
rhumerus -30.0694 -0.663398 -83.9796
rradius 44.2187
rwrist -18.2909
rhand -21.3388 12.3143
rfingers 7.12502
rthumb 5.04719 -17.6056
lclavicle 2.77802e-014 -1.47101e-014
lhumerus -35.1157 10.0525 80.4257
lradius 26.3854
lwrist 0.696375
lhand -15.4045 19.827
lfingers 7.12502
lthumb 10.7746 49.5306
rfemur 14.344 0.823636 33.8432
rtibia 34.5853
rfoot -31.4223 -6.74277
rtoes -2.28977
lfemur -27.8593 2.65579 -9.1113
ltibia 25.6794
lfoot 24.6911 1.62329
ltoes -8.01783
2599
root -2.11014 22.375 1.74238 -367.442 -6.46326 -6.67862
lowerback 4.78204 2.11589 5.77224
upperback 4.19494 2.95898 3.77627
thorax 1.74936 1.56152 0.574712
lowerneck -12.3504 -0.881756 -7.95664
upperneck 37.9652 -0.324288 3.58959
head 15.4271 -0.779604 2.90588
rclavicle -3.23274e-014 -1.51076e-014
rhumerus -30.306 -0.933581 -84.0351
rradius 44.1095
rwrist -18.1115
rhand -21.0145 12.0646
rfingers 7.12502
rthumb 5.36036 -17.8476
lclavicle -3.23274e-014 -1.51076e-014
lhumerus -35.4262 10.3544 80.1791
lradius 26.1937
lwrist 0.145887
lhand -15.2922 19.9023
lfingers 7.12502
lthumb 10.8829 49.6003
rfemur 14.624 0.691135 33.5223
rtibia 35.3221
rfoot -31.8979 -6.58853
rtoes -2.70159
lfemur -27.1606 2.17086 -9.03469
ltibia 24.4912
lfoot 25.5062 1.70499
ltoes -8.32893
2600
root -2.09673 22.3214 1.89196 -367.435 -6.73248 -6.77804
lowerback 4.37351 2.19248 5.97768
upperback 4.1636 3.03302 3.75894
thorax 1.96055 1.6071 0.459603
lowerneck -12.1457 -0.877477 -7.83402
upperneck 38.0109 -0.311099 3.42608
head 15.4003 -0.780669 2.81515
rclavicle 2.04127e-014 1.19271e-015
rhumerus -30.8361 -1.3109 -84.0567
rradius 44.2494
rwrist -17.9586
rhand -20.6864 11.3776
rfingers 7.12502
rthumb 5.67712 -18.5263
lclavicle 2.04127e-014 1.19271e-015
lhumerus -35.974 10.3337 80.0963
lradius 26.3074
lwrist 0.309675
lhand -17.5665 19.6939
lfingers 7.12502
lthumb 8.68873 49.4951
rfemur 14.9118 0.627926 33.3542
rtibia 36.1026
rfoot -32.5585 -5.80537
rtoes -1.40719
lfemur -26.5115 1.95986 -8.82156
ltibia 23.5164
lfoot 26.0554 1.70824
ltoes -9.65938
2601
root -2.08405 22.2589 2.04525 -367.548 -7.0533 -6.85952
lowerback 4.1075 2.27742 6.13252
upperback 4.19983 3.12336 3.76358
thorax 2.15967 1.66022 0.391652
lowerneck -12.1707 -0.852285 -7.62915
upperneck 38.1697 -0.226968 3.15776
head 15.4798 -0.756502 2.68152
rclavicle -3.87506e-014 -7.95139e-015
rhumerus -31.2429 -1.43329 -84.1051
rradius 44.2494
rwrist -18.167
rhand -20.6493 11.1059
rfingers 7.12502
rthumb 5.71297 -18.7971
lclavicle -3.87506e-014 -7.95139e-015
lhumerus -36.3104 10.427 80.0099
lradius 26.2084
lwrist 0.357763
lhand -23.1682 19.9132
lfingers 7.12502
lthumb 3.28063 49.8677
rfemur 15.4328 0.450715 33.183
rtibia 36.8762
rfoot -33.0902 -5.98749
rtoes -4.19236
lfemur -25.7122 1.91533 -8.6612
ltibia 22.7004
lfoot 26.2547 1.90812
ltoes -10.418
2602
root -2.07106 22.1918 2.19533 -367.64 -7.25749 -6.58862
lowerback 3.87092 2.3546 5.84141
upperback 4.20466 3.19961 3.71896
thorax 2.28441 1.6942 0.516482
lowerneck -12.323 -0.824156 -7.55162
upperneck 38.3992 -0.124902 2.98655
head 15.6258 -0.731663 2.61825
rclavicle -5.479e-015 -4.17448e-014
rhumerus -31.4501 -1.53918 -84.0985
rradius 43.8865
rwrist -18.4175
rhand -20.6597 11.2777
rfingers 7.12502
rthumb 5.70289 -18.6255
lclavicle -5.479e-015 -4.17448e-014
lhumerus -36.6192 10.7958 79.8578
lradius 25.973
lwrist -0.0457112
lhand -17.2182 20.387
lfingers 7.12502
lthumb 9.02475 50.174
rfemur 15.894 0.259186 32.6177
rtibia 37.6173
rfoot -33.6112 -6.33045
rtoes -7.47791
lfemur -25.0785 1.94265 -8.96956
ltibia 22.0974
lfoot 26.4568 1.77943
ltoes -10.9798
2603
root -2.05446 22.1291 2.34256 -367.545 -7.27726 -6.36318
lowerback 3.48164 2.43108 5.70158
upperback 4.07526 3.27609 3.60264
thorax 2.36827 1.73061 0.48752
lowerneck -12.1271 -0.829461 -7.53231
upperneck 38.512 -0.172859 3.03421
head 15.6387 -0.745466 2.62944
rclavicle -2.17918e-014 1.35174e-014
rhumerus -31.9883 -1.9645 -84.0866
rradius 43.777
rwrist -18.4747
rhand -20.4971 11.2711
rfingers 7.12502
rthumb 5.8599 -18.6278
lclavicle -2.17918e-014 1.35174e-014
lhumerus -37.1087 11.0346 79.599
lradius 25.8775
lwrist -0.493244
lhand -14.8324 19.8819
lfingers 7.12502
lthumb 11.3264 49.5561
rfemur 15.9504 0.276778 32.0251
rtibia 38.3629
rfoot -34.0361 -4.55004
rtoes -3.89923
lfemur -24.7143 1.72761 -9.25781
ltibia 21.6175
lfoot 26.6737 1.89671
ltoes -10.6477
